<svg width="180" height="180" viewBox="0 0 180 180" fill="none" xmlns="http://www.w3.org/2000/svg">
  <rect width="180" height="180" rx="22" fill="#4F46E5"/>
  <path d="M90 36C67.2 36 48 55.2 48 78C48 100.8 67.2 120 90 120C112.8 120 132 100.8 132 78C132 55.2 112.8 36 90 36ZM90 108C73.2 108 60 94.8 60 78C60 61.2 73.2 48 90 48C106.8 48 120 61.2 120 78C120 94.8 106.8 108 90 108Z" fill="white"/>
  <path d="M90 54C79.2 54 72 61.2 72 72C72 82.8 79.2 90 90 90C100.8 90 108 82.8 108 72C108 61.2 100.8 54 90 54ZM90 84C82.8 84 78 79.2 78 72C78 64.8 82.8 60 90 60C97.2 60 102 64.8 102 72C102 79.2 97.2 84 90 84Z" fill="white"/>
  <circle cx="90" cy="72" r="6" fill="white"/>
</svg> 