<svg width="192" height="192" viewBox="0 0 192 192" fill="none" xmlns="http://www.w3.org/2000/svg">
  <rect width="192" height="192" rx="24" fill="#4F46E5"/>
  <path d="M96 48C68.4 48 46 70.4 46 98C46 125.6 68.4 148 96 148C123.6 148 146 125.6 146 98C146 70.4 123.6 48 96 48ZM96 136C75.2 136 58 118.8 58 98C58 77.2 75.2 60 96 60C116.8 60 134 77.2 134 98C134 118.8 116.8 136 96 136Z" fill="white"/>
  <path d="M96 72C82.8 72 72 82.8 72 96C72 109.2 82.8 120 96 120C109.2 120 120 109.2 120 96C120 82.8 109.2 72 96 72ZM96 112C87.2 112 80 104.8 80 96C80 87.2 87.2 80 96 80C104.8 80 112 87.2 112 96C112 104.8 104.8 112 96 112Z" fill="white"/>
  <circle cx="96" cy="96" r="8" fill="white"/>
</svg> 