<svg width="512" height="512" viewBox="0 0 512 512" fill="none" xmlns="http://www.w3.org/2000/svg">
  <rect width="512" height="512" rx="64" fill="#4F46E5"/>
  <path d="M256 128C179.2 128 128 179.2 128 256C128 332.8 179.2 384 256 384C332.8 384 384 332.8 384 256C384 179.2 332.8 128 256 128ZM256 352C200.8 352 160 311.2 160 256C160 200.8 200.8 160 256 160C311.2 160 352 200.8 352 256C352 311.2 311.2 352 256 352Z" fill="white"/>
  <path d="M256 192C229.6 192 208 213.6 208 240C208 266.4 229.6 288 256 288C282.4 288 304 266.4 304 240C304 213.6 282.4 192 256 192ZM256 272C238.4 272 224 257.6 224 240C224 222.4 238.4 208 256 208C273.6 208 288 222.4 288 240C288 257.6 273.6 272 256 272Z" fill="white"/>
  <circle cx="256" cy="256" r="24" fill="white"/>
</svg> 